<svg width="33" height="32" viewBox="0 0 33 32" fill="none" xmlns="http://www.w3.org/2000/svg">
                        <path d="M9.38656 3.18514H3.11879V11.518H9.70055C10.6184 11.518 11.1014 10.7934 11.3188 9.94504C11.5966 8.8672 11.4577 5.9839 11.3701 5.15062C11.2494 3.9973 10.5942 3.34818 9.38957 3.18816M1.1503 0.0874948H9.76696C12.2457 0.0874948 14.1568 1.64236 14.5554 3.45083C14.8935 4.98758 15.1381 9.06646 14.5554 11.8048C14.2957 13.0336 12.5748 14.7062 9.76696 14.7062H1.52165C1.07179 14.664 0.70648 14.5191 0.431737 14.2473C0.17209 13.9907 0.0362284 13.6314 0.0362284 13.2661L0 1.46423C0 1.33742 0.0150906 1.21364 0.0513205 1.09287C0.208317 0.600747 0.670246 0.265622 1.14425 0.0844727" fill="url(#paint0_linear_14949_3638)"></path>
                        <path d="M30.6863 3.12181H18.3137C17.8548 3.12181 17.4805 2.74743 17.4805 2.28852V0.83329C17.4805 0.374378 17.8548 0 18.3137 0H30.6863C31.1452 0 31.5195 0.374378 31.5195 0.83329V2.28852C31.5195 2.74743 31.1452 3.12181 30.6863 3.12181Z" fill="url(#paint1_linear_14949_3638)"></path>
                        <path d="M30.6863 8.89744H18.3137C17.8548 8.89744 17.4805 8.52306 17.4805 8.06415V6.60892C17.4805 6.15 17.8548 5.77563 18.3137 5.77563H30.6863C31.1452 5.77563 31.5195 6.15 31.5195 6.60892V8.06415C31.5195 8.52306 31.1452 8.89744 30.6863 8.89744Z" fill="url(#paint2_linear_14949_3638)"></path>
                        <path d="M30.6863 14.6731H18.3137C17.8548 14.6731 17.4805 14.2987 17.4805 13.8398V12.3846C17.4805 11.9256 17.8548 11.5513 18.3137 11.5513H30.6863C31.1452 11.5513 31.5195 11.9256 31.5195 12.3846V13.8398C31.5195 14.2987 31.1452 14.6731 30.6863 14.6731Z" fill="url(#paint3_linear_14949_3638)"></path>
                        <path d="M13.3054 20.4487H0.932899C0.473988 20.4487 0.0996094 20.0743 0.0996094 19.6154V18.1602C0.0996094 17.7013 0.473988 17.3269 0.932899 17.3269H13.3054C13.7643 17.3269 14.1387 17.7013 14.1387 18.1602V19.6154C14.1387 20.0743 13.7643 20.4487 13.3054 20.4487Z" fill="url(#paint4_linear_14949_3638)"></path>
                        <path d="M13.3054 26.2243H0.932899C0.473988 26.2243 0.0996094 25.85 0.0996094 25.3911V23.9358C0.0996094 23.4769 0.473988 23.1025 0.932899 23.1025H13.3054C13.7643 23.1025 14.1387 23.4769 14.1387 23.9358V25.3911C14.1387 25.85 13.7643 26.2243 13.3054 26.2243Z" fill="url(#paint5_linear_14949_3638)"></path>
                        <path d="M13.3054 32H0.932899C0.473988 32 0.0996094 31.6256 0.0996094 31.1667V29.7115C0.0996094 29.2526 0.473988 28.8782 0.932899 28.8782H13.3054C13.7643 28.8782 14.1387 29.2526 14.1387 29.7115V31.1667C14.1387 31.6256 13.7643 32 13.3054 32Z" fill="url(#paint6_linear_14949_3638)"></path>
                        <path d="M31.746 20.2312C31.4834 19.0025 29.7655 17.3298 26.9577 17.3298H18.7123C18.7123 17.3298 18.6972 17.3298 18.6912 17.3298C17.8609 17.4114 17.2299 18.1178 17.2269 18.9541V19.1021L17.2239 19.6727V26.2907C17.2179 26.3299 17.2148 26.3662 17.2148 26.4054V31.1425C17.2148 31.6014 17.5892 31.9758 18.0481 31.9758H19.5034C19.9623 31.9758 20.3366 31.6014 20.3366 31.1425V28.6698H26.9577C29.4364 28.6698 31.3475 27.1149 31.746 25.3034C32.0842 23.7667 32.3287 22.9636 31.746 20.2252V20.2312ZM28.5578 23.6127C28.4099 24.7509 27.7819 25.4121 26.5772 25.5751H21.8644H20.3366V20.506H21.8644V20.515H26.8912C27.809 20.515 28.3736 21.2336 28.5608 22.088C28.6635 22.562 28.6091 23.2353 28.5608 23.6067L28.5578 23.6127Z" fill="url(#paint7_linear_14949_3638)"></path>
                        <path d="M17.2276 19.1023L17.2246 19.6729V19.1023H17.2276Z" fill="url(#paint8_linear_14949_3638)"></path>
                        <defs>
                            <linearGradient id="paint0_linear_14949_3638" x1="2.14964" y1="-0.528416" x2="11.0712" y2="14.9206" gradientUnits="userSpaceOnUse">
                            <stop stop-color="#F2A813"></stop>
                            <stop offset="1" stop-color="#CB4F9A"></stop>
                            </linearGradient>
                            <linearGradient id="paint1_linear_14949_3638" x1="22.2236" y1="-2.38211" x2="26.7764" y2="5.50694" gradientUnits="userSpaceOnUse">
                            <stop stop-color="#CB4F9A"></stop>
                            <stop offset="1" stop-color="#AE2AE2"></stop>
                            </linearGradient>
                            <linearGradient id="paint2_linear_14949_3638" x1="22.2236" y1="3.39352" x2="26.7764" y2="11.2826" gradientUnits="userSpaceOnUse">
                            <stop stop-color="#CB4F9A"></stop>
                            <stop offset="1" stop-color="#AE2AE2"></stop>
                            </linearGradient>
                            <linearGradient id="paint3_linear_14949_3638" x1="22.2236" y1="9.16916" x2="26.7764" y2="17.0582" gradientUnits="userSpaceOnUse">
                            <stop stop-color="#CB4F9A"></stop>
                            <stop offset="1" stop-color="#AE2AE2"></stop>
                            </linearGradient>
                            <linearGradient id="paint4_linear_14949_3638" x1="4.8427" y1="14.9448" x2="9.39863" y2="22.8338" gradientUnits="userSpaceOnUse">
                            <stop stop-color="#AE2AE2"></stop>
                            <stop offset="1" stop-color="#6F79F1"></stop>
                            </linearGradient>
                            <linearGradient id="paint5_linear_14949_3638" x1="4.8427" y1="20.7204" x2="9.39861" y2="28.6095" gradientUnits="userSpaceOnUse">
                            <stop stop-color="#AE2AE2"></stop>
                            <stop offset="1" stop-color="#6F79F1"></stop>
                            </linearGradient>
                            <linearGradient id="paint6_linear_14949_3638" x1="4.8427" y1="26.4961" x2="9.39861" y2="34.3851" gradientUnits="userSpaceOnUse">
                            <stop stop-color="#AE2AE2"></stop>
                            <stop offset="1" stop-color="#6F79F1"></stop>
                            </linearGradient>
                            <linearGradient id="paint7_linear_14949_3638" x1="19.3403" y1="16.7924" x2="26.7614" y2="29.648" gradientUnits="userSpaceOnUse">
                            <stop stop-color="#6F79F1"></stop>
                            <stop offset="1" stop-color="#37BFFE"></stop>
                            </linearGradient>
                            <linearGradient id="paint8_linear_14949_3638" x1="17.1007" y1="19.1748" x2="17.3482" y2="19.6037" gradientUnits="userSpaceOnUse">
                            <stop stop-color="#F2A813"></stop>
                            <stop offset="0.29" stop-color="#CB4F9A"></stop>
                            <stop offset="0.53" stop-color="#AE2AE2"></stop>
                            <stop offset="0.78" stop-color="#6F79F1"></stop>
                            <stop offset="1" stop-color="#37BFFE"></stop>
                            </linearGradient>
                        </defs>
                    </svg>