<svg width="400" height="107" viewBox="0 0 400 107" fill="none" xmlns="http://www.w3.org/2000/svg">
<path d="M140 72V37H146V72H140Z" fill="white"/>
<path d="M158 72V45H163.5V50H163.8C164.5 48.2 165.5 46.8 167 45.9C168.5 45 170.2 44.5 172 44.5C173.8 44.5 175.4 44.9 176.7 45.8C178 46.7 179 48 179.5 49.6H179.8C180.5 48 181.5 46.7 182.9 45.8C184.3 44.9 186 44.4 188 44.4C190.5 44.4 192.5 45.2 194 46.8C195.5 48.4 196.3 50.8 196.3 54V72H190.8V55.5C190.8 53.4 190.3 51.9 189.3 51C188.3 50.1 187.1 49.6 185.7 49.6C184 49.6 182.7 50.1 181.7 51.2C180.7 52.3 180.2 53.7 180.2 55.5V72H174.7V55.2C174.7 53.3 174.3 51.9 173.4 50.9C172.5 49.9 171.3 49.4 169.9 49.4C169 49.4 168.1 49.6 167.3 50.1C166.5 50.6 165.8 51.3 165.3 52.3C164.8 53.3 164.5 54.4 164.5 55.8V72H158.5L158 72Z" fill="white"/>
<path d="M207 72V45H212.5V72H207ZM209.8 40.5C208.9 40.5 208.1 40.2 207.5 39.6C206.9 39 206.6 38.3 206.6 37.5C206.6 36.7 206.9 36 207.5 35.4C208.1 34.8 208.9 34.5 209.8 34.5C210.7 34.5 211.5 34.8 212.1 35.4C212.7 36 213 36.7 213 37.5C213 38.3 212.7 39 212.1 39.6C211.5 40.2 210.7 40.5 209.8 40.5Z" fill="white"/>
<path d="M224 73C222.6 73 221.3 72.7 220.2 72.1C219.1 71.5 218.2 70.6 217.6 69.5C217 68.4 216.7 67 216.7 65.4V50.5H213V45.5H216.7V38.5H222.2V45.5H227.8V50.5H222.2V65C222.2 66.2 222.5 67.2 223.1 67.9C223.7 68.6 224.6 69 225.7 69C226.3 69 226.8 68.9 227.2 68.8C227.6 68.7 228 68.5 228.4 68.3L229.7 72.9C229.1 73.2 228.3 73.5 227.4 73.7C226.5 73.9 225.5 74 224.4 74L224 73Z" fill="white"/>
<path d="M239 72V45H244.5V72H239ZM241.8 40.5C240.9 40.5 240.1 40.2 239.5 39.6C238.9 39 238.6 38.3 238.6 37.5C238.6 36.7 238.9 36 239.5 35.4C240.1 34.8 240.9 34.5 241.8 34.5C242.7 34.5 243.5 34.8 244.1 35.4C244.7 36 245 36.7 245 37.5C245 38.3 244.7 39 244.1 39.6C243.5 40.2 242.7 40.5 241.8 40.5Z" fill="white"/>
<path d="M257 73C255 73 253.2 72.6 251.6 71.8C250 71 248.7 69.9 247.8 68.5C246.9 67.1 246.4 65.4 246.4 63.4C246.4 61.4 246.9 59.7 247.8 58.3C248.7 56.9 250 55.8 251.6 55C253.2 54.2 255 53.8 257 53.8C259 53.8 260.8 54.2 262.4 55C264 55.8 265.3 56.9 266.2 58.3C267.1 59.7 267.6 61.4 267.6 63.4C267.6 63.7 267.6 63.9 267.6 64.2C267.6 64.5 267.5 64.7 267.5 64.9H252V61H265L263 62C263 60.8 262.7 59.8 262.2 58.9C261.7 58 261 57.3 260.1 56.9C259.2 56.5 258.2 56.3 257.1 56.3C255.9 56.3 254.8 56.5 253.9 57C253 57.5 252.3 58.2 251.8 59.1C251.3 60 251 61.1 251 62.3V63.6C251 64.9 251.3 66 251.8 66.9C252.3 67.8 253 68.5 254 69C255 69.5 256.1 69.8 257.4 69.8C258.5 69.8 259.4 69.6 260.2 69.2C261 68.8 261.8 68.3 262.5 67.6L265.1 70.8C264.1 71.8 262.8 72.6 261.3 73.1C259.8 73.6 258.2 73.9 256.5 73.9L257 73Z" fill="white"/>
<path d="M276 73C274 73 272.2 72.6 270.6 71.8C269 71 267.7 69.9 266.8 68.5C265.9 67.1 265.4 65.4 265.4 63.4C265.4 61.4 265.9 59.7 266.8 58.3C267.7 56.9 269 55.8 270.6 55C272.2 54.2 274 53.8 276 53.8C278 53.8 279.8 54.2 281.4 55C283 55.8 284.3 56.9 285.2 58.3C286.1 59.7 286.6 61.4 286.6 63.4C286.6 63.7 286.6 63.9 286.6 64.2C286.6 64.5 286.5 64.7 286.5 64.9H271V61H284L282 62C282 60.8 281.7 59.8 281.2 58.9C280.7 58 280 57.3 279.1 56.9C278.2 56.5 277.2 56.3 276.1 56.3C274.9 56.3 273.8 56.5 272.9 57C272 57.5 271.3 58.2 270.8 59.1C270.3 60 270 61.1 270 62.3V63.6C270 64.9 270.3 66 270.8 66.9C271.3 67.8 272 68.5 273 69C274 69.5 275.1 69.8 276.4 69.8C277.5 69.8 278.4 69.6 279.2 69.2C280 68.8 280.8 68.3 281.5 67.6L284.1 70.8C283.1 71.8 281.8 72.6 280.3 73.1C278.8 73.6 277.2 73.9 275.5 73.9L276 73Z" fill="white"/>
<path d="M297 73C295.6 73 294.3 72.7 293.2 72.1C292.1 71.5 291.2 70.6 290.6 69.5C290 68.4 289.7 67 289.7 65.4V50.5H286V45.5H289.7V38.5H295.2V45.5H300.8V50.5H295.2V65C295.2 66.2 295.5 67.2 296.1 67.9C296.7 68.6 297.6 69 298.7 69C299.3 69 299.8 68.9 300.2 68.8C300.6 68.7 301 68.5 301.4 68.3L302.7 72.9C302.1 73.2 301.3 73.5 300.4 73.7C299.5 73.9 298.5 74 297.4 74L297 73Z" fill="white"/>
<path d="M312 72V45H317.5V72H312ZM314.8 40.5C313.9 40.5 313.1 40.2 312.5 39.6C311.9 39 311.6 38.3 311.6 37.5C311.6 36.7 311.9 36 312.5 35.4C313.1 34.8 313.9 34.5 314.8 34.5C315.7 34.5 316.5 34.8 317.1 35.4C317.7 36 318 36.7 318 37.5C318 38.3 317.7 39 317.1 39.6C316.5 40.2 315.7 40.5 314.8 40.5Z" fill="white"/>
<path d="M329 72V45H334.5V50H334.8C335.5 48.2 336.5 46.8 338 45.9C339.5 45 341.2 44.5 343 44.5C345.5 44.5 347.5 45.3 349 46.9C350.5 48.5 351.3 50.9 351.3 54V72H345.8V54.8C345.8 52.9 345.3 51.4 344.3 50.4C343.3 49.4 342 48.9 340.4 48.9C339.4 48.9 338.5 49.1 337.7 49.6C336.9 50.1 336.2 50.8 335.7 51.8C335.2 52.8 334.9 54 334.9 55.4V72H329Z" fill="white"/>
<path d="M362 73C360 73 358.2 72.6 356.6 71.8C355 71 353.7 69.9 352.8 68.5C351.9 67.1 351.4 65.4 351.4 63.4C351.4 61.4 351.9 59.7 352.8 58.3C353.7 56.9 355 55.8 356.6 55C358.2 54.2 360 53.8 362 53.8C364 53.8 365.8 54.2 367.4 55C369 55.8 370.3 56.9 371.2 58.3C372.1 59.7 372.6 61.4 372.6 63.4C372.6 63.7 372.6 63.9 372.6 64.2C372.6 64.5 372.5 64.7 372.5 64.9H357V61H370L368 62C368 60.8 367.7 59.8 367.2 58.9C366.7 58 366 57.3 365.1 56.9C364.2 56.5 363.2 56.3 362.1 56.3C360.9 56.3 359.8 56.5 358.9 57C358 57.5 357.3 58.2 356.8 59.1C356.3 60 356 61.1 356 62.3V63.6C356 64.9 356.3 66 356.8 66.9C357.3 67.8 358 68.5 359 69C360 69.5 361.1 69.8 362.4 69.8C363.5 69.8 364.4 69.6 365.2 69.2C366 68.8 366.8 68.3 367.5 67.6L370.1 70.8C369.1 71.8 367.8 72.6 366.3 73.1C364.8 73.6 363.2 73.9 361.5 73.9L362 73Z" fill="white"/>
<path d="M31.09 10.86H10.33V38.46H32.13C35.17 38.46 36.77 36.06 37.49 33.25C38.41 29.68 37.95 20.13 37.66 17.37C37.26 13.55 35.09 11.4 31.1 10.87M3.81 0.609985H32.35C40.56 0.609985 46.89 5.76 48.21 11.75C49.33 16.84 50.14 30.35 48.21 39.42C47.35 43.49 41.65 49.03 32.35 49.03H5.03998C3.54998 48.89 2.33999 48.41 1.42999 47.51C0.569993 46.66 0.119995 45.47 0.119995 44.26L0 5.16998C0 4.74998 0.0499829 4.34 0.169983 3.94C0.689983 2.31 2.21998 1.19998 3.78998 0.599976" fill="url(#paint0_linear_555_322)"/>
<path d="M101.64 10.66H60.6599C59.1399 10.66 57.8999 9.42002 57.8999 7.90002V3.08002C57.8999 1.56002 59.1399 0.320007 60.6599 0.320007H101.64C103.16 0.320007 104.4 1.56002 104.4 3.08002V7.90002C104.4 9.42002 103.16 10.66 101.64 10.66Z" fill="url(#paint1_linear_555_322)"/>
<path d="M101.64 29.79H60.6599C59.1399 29.79 57.8999 28.55 57.8999 27.03V22.21C57.8999 20.69 59.1399 19.45 60.6599 19.45H101.64C103.16 19.45 104.4 20.69 104.4 22.21V27.03C104.4 28.55 103.16 29.79 101.64 29.79Z" fill="url(#paint2_linear_555_322)"/>
<path d="M101.64 48.92H60.6599C59.1399 48.92 57.8999 47.68 57.8999 46.16V41.34C57.8999 39.82 59.1399 38.58 60.6599 38.58H101.64C103.16 38.58 104.4 39.82 104.4 41.34V46.16C104.4 47.68 103.16 48.92 101.64 48.92Z" fill="url(#paint3_linear_555_322)"/>
<path d="M44.0701 68.05H3.09009C1.57009 68.05 0.330078 66.81 0.330078 65.29V60.47C0.330078 58.95 1.57009 57.71 3.09009 57.71H44.0701C45.5901 57.71 46.8301 58.95 46.8301 60.47V65.29C46.8301 66.81 45.5901 68.05 44.0701 68.05Z" fill="url(#paint4_linear_555_322)"/>
<path d="M44.0701 87.18H3.09009C1.57009 87.18 0.330078 85.94 0.330078 84.42V79.6C0.330078 78.08 1.57009 76.84 3.09009 76.84H44.0701C45.5901 76.84 46.8301 78.08 46.8301 79.6V84.42C46.8301 85.94 45.5901 87.18 44.0701 87.18Z" fill="url(#paint5_linear_555_322)"/>
<path d="M44.0701 106.31H3.09009C1.57009 106.31 0.330078 105.07 0.330078 103.55V98.73C0.330078 97.21 1.57009 95.97 3.09009 95.97H44.0701C45.5901 95.97 46.8301 97.21 46.8301 98.73V103.55C46.8301 105.07 45.5901 106.31 44.0701 106.31Z" fill="url(#paint6_linear_555_322)"/>
<path d="M105.15 67.32C104.28 63.25 98.59 57.71 89.29 57.71H61.98C61.98 57.71 61.93 57.71 61.91 57.71C59.16 57.98 57.07 60.32 57.06 63.09V63.58L57.05 65.47V87.39C57.03 87.52 57.02 87.64 57.02 87.77V103.46C57.02 104.98 58.26 106.22 59.78 106.22H64.6C66.12 106.22 67.36 104.98 67.36 103.46V95.27H89.29C97.5 95.27 103.83 90.12 105.15 84.12C106.27 79.03 107.08 76.37 105.15 67.3V67.32ZM94.59 78.53C94.1 82.3 92.02 84.49 88.03 85.03H72.42H67.36V68.24H72.42V68.27H89.0699C92.1099 68.27 93.98 70.65 94.6 73.48C94.94 75.05 94.76 77.28 94.6 78.51L94.59 78.53Z" fill="url(#paint7_linear_555_322)"/>
<path d="M57.0601 63.59L57.05 65.48V63.59H57.0601Z" fill="url(#paint8_linear_555_322)"/>
<defs>
<linearGradient id="paint0_linear_555_322" x1="7.12" y1="-1.43003" x2="36.67" y2="49.74" gradientUnits="userSpaceOnUse">
<stop stop-color="#F2A813"/>
<stop offset="1" stop-color="#CB4F9A"/>
</linearGradient>
<linearGradient id="paint1_linear_555_322" x1="73.6099" y1="-7.57997" x2="88.6898" y2="18.56" gradientUnits="userSpaceOnUse">
<stop stop-color="#CB4F9A"/>
<stop offset="1" stop-color="#AE2AE2"/>
</linearGradient>
<linearGradient id="paint2_linear_555_322" x1="73.6099" y1="11.55" x2="88.6898" y2="37.69" gradientUnits="userSpaceOnUse">
<stop stop-color="#CB4F9A"/>
<stop offset="1" stop-color="#AE2AE2"/>
</linearGradient>
<linearGradient id="paint3_linear_555_322" x1="73.6099" y1="30.68" x2="88.6898" y2="56.82" gradientUnits="userSpaceOnUse">
<stop stop-color="#CB4F9A"/>
<stop offset="1" stop-color="#AE2AE2"/>
</linearGradient>
<linearGradient id="paint4_linear_555_322" x1="16.0401" y1="49.81" x2="31.13" y2="75.95" gradientUnits="userSpaceOnUse">
<stop stop-color="#AE2AE2"/>
<stop offset="1" stop-color="#6F79F1"/>
</linearGradient>
<linearGradient id="paint5_linear_555_322" x1="16.0401" y1="68.9401" x2="31.13" y2="95.08" gradientUnits="userSpaceOnUse">
<stop stop-color="#AE2AE2"/>
<stop offset="1" stop-color="#6F79F1"/>
</linearGradient>
<linearGradient id="paint6_linear_555_322" x1="16.0401" y1="88.07" x2="31.1301" y2="114.21" gradientUnits="userSpaceOnUse">
<stop stop-color="#AE2AE2"/>
<stop offset="1" stop-color="#6F79F1"/>
</linearGradient>
<linearGradient id="paint7_linear_555_322" x1="64.06" y1="55.93" x2="88.64" y2="98.52" gradientUnits="userSpaceOnUse">
<stop stop-color="#6F79F1"/>
<stop offset="1" stop-color="#37BFFE"/>
</linearGradient>
<linearGradient id="paint8_linear_555_322" x1="56.6396" y1="63.82" x2="57.4592" y2="65.2407" gradientUnits="userSpaceOnUse">
<stop stop-color="#F2A813"/>
<stop offset="0.29" stop-color="#CB4F9A"/>
<stop offset="0.53" stop-color="#AE2AE2"/>
<stop offset="0.78" stop-color="#6F79F1"/>
<stop offset="1" stop-color="#37BFFE"/>
</linearGradient>
</defs>
</svg>
