<svg width="280" height="107" viewBox="0 0 280 107" fill="none" xmlns="http://www.w3.org/2000/svg">
<path d="M135.67 72.37V36.68H141.61V72.37H135.67Z" fill="white"/>
<path d="M152.33 72.84C149.81 72.84 147.57 72.32 145.61 71.28C143.65 70.24 142.1 68.81 140.96 66.99C139.82 65.17 139.25 63.08 139.25 60.72C139.25 58.4 139.81 56.33 140.93 54.51C142.05 52.69 143.59 51.26 145.55 50.22C147.51 49.18 149.75 48.66 152.27 48.66C154.79 48.66 157.03 49.18 158.99 50.22C160.95 51.26 162.49 52.69 163.61 54.51C164.73 56.33 165.29 58.4 165.29 60.72C165.29 63.08 164.72 65.17 163.58 66.99C162.44 68.81 160.89 70.24 158.93 71.28C156.97 72.32 154.73 72.84 152.21 72.84H152.33ZM152.33 67.67C153.89 67.67 155.29 67.32 156.53 66.62C157.77 65.92 158.75 64.93 159.47 63.65C160.19 62.37 160.55 60.87 160.55 59.15C160.55 57.39 160.2 55.87 159.5 54.59C158.8 53.31 157.84 52.32 156.62 51.62C155.4 50.92 154.01 50.57 152.45 50.57C150.89 50.57 149.49 50.92 148.25 51.62C147.01 52.32 146.03 53.31 145.31 54.59C144.59 55.87 144.23 57.37 144.23 59.09C144.23 60.85 144.58 62.37 145.28 63.65C145.98 64.93 146.94 65.92 148.16 66.62C149.38 67.32 150.77 67.67 152.33 67.67Z" fill="white"/>
<path d="M175.22 72.84C172.98 72.84 170.98 72.38 169.2 71.46C167.42 70.54 166.01 69.24 164.97 67.56C163.93 65.88 163.41 63.91 163.41 61.65C163.41 59.43 163.92 57.48 164.94 55.8C165.96 54.12 167.35 52.82 169.11 51.9C170.87 50.98 172.84 50.52 175.02 50.52C177.2 50.52 179.17 50.98 180.93 51.9C182.69 52.82 184.07 54.12 185.07 55.8C186.07 57.48 186.57 59.45 186.57 61.71C186.57 61.99 186.56 62.29 186.54 62.61C186.52 62.93 186.5 63.21 186.48 63.45H169.36V59.08H182.82L180.51 60.18C180.51 58.88 180.23 57.75 179.67 56.79C179.11 55.83 178.33 55.08 177.33 54.54C176.33 54 175.19 53.73 173.91 53.73C172.59 53.73 171.42 54.01 170.4 54.57C169.38 55.13 168.58 55.92 168 56.94C167.42 57.96 167.13 59.16 167.13 60.54V61.99C167.13 63.43 167.45 64.67 168.09 65.71C168.73 66.75 169.61 67.56 170.73 68.14C171.85 68.72 173.15 69.01 174.63 69.01C175.83 69.01 176.91 68.83 177.87 68.47C178.83 68.11 179.75 67.54 180.63 66.76L183.5 70.38C182.32 71.54 180.91 72.42 179.27 73.02C177.63 73.62 175.91 73.92 174.11 73.92L175.22 72.84Z" fill="white"/>
<path d="M196.15 72.84C193.63 72.84 191.39 72.32 189.43 71.28C187.47 70.24 185.92 68.81 184.78 66.99C183.64 65.17 183.07 63.08 183.07 60.72C183.07 58.32 183.67 56.21 184.87 54.39C186.07 52.57 187.74 51.14 189.88 50.1C192.02 49.06 194.5 48.54 197.32 48.54C199.7 48.54 201.82 48.88 203.68 49.56C205.54 50.24 207.04 51.23 208.18 52.53L204.12 56.39C203.3 55.49 202.28 54.81 201.06 54.35C199.84 53.89 198.56 53.66 197.22 53.66C195.46 53.66 193.9 54 192.54 54.68C191.18 55.36 190.12 56.33 189.36 57.59C188.6 58.85 188.22 60.35 188.22 62.09C188.22 63.87 188.58 65.4 189.3 66.68C190.02 67.96 191.06 68.95 192.42 69.65C193.78 70.35 195.4 70.7 197.28 70.7C198.72 70.7 200.04 70.47 201.24 70.01C202.44 69.55 203.44 68.87 204.24 67.97L208.3 71.83C207.12 73.13 205.56 74.14 203.72 74.86C201.88 75.58 199.84 75.94 197.6 75.94L196.15 72.84Z" fill="white"/>
<path d="M217.84 72.84C215.92 72.84 214.22 72.48 212.74 71.76C211.26 71.04 210.12 69.99 209.32 68.61C208.52 67.23 208.12 65.55 208.12 63.57V49.92H203.79V44.24H208.12V36.63H214.01V44.24H220.29V49.92H214.01V63.38C214.01 64.8 214.39 65.91 215.15 66.71C215.91 67.51 216.92 67.91 218.18 67.91C218.84 67.91 219.42 67.84 219.92 67.7C220.42 67.56 220.91 67.36 221.39 67.1L222.92 72.41C222.18 72.81 221.28 73.12 220.22 73.34C219.16 73.56 218.04 73.67 216.86 73.67L217.84 72.84Z" fill="white"/>
<path d="M227.33 72.37V43.66H233.12V72.37H227.33ZM230.24 39.56C229.18 39.56 228.28 39.22 227.54 38.54C226.8 37.86 226.43 37.04 226.43 36.08C226.43 35.12 226.8 34.31 227.54 33.65C228.28 32.99 229.18 32.66 230.24 32.66C231.3 32.66 232.2 32.99 232.94 33.65C233.68 34.31 234.05 35.12 234.05 36.08C234.05 37.04 233.68 37.86 232.94 38.54C232.2 39.22 231.3 39.56 230.24 39.56Z" fill="white"/>
<path d="M244.85 72.84C242.33 72.84 240.09 72.32 238.13 71.28C236.17 70.24 234.62 68.81 233.48 66.99C232.34 65.17 231.77 63.08 231.77 60.72C231.77 58.4 232.33 56.33 233.45 54.51C234.57 52.69 236.11 51.26 238.07 50.22C240.03 49.18 242.27 48.66 244.79 48.66C247.31 48.66 249.55 49.18 251.51 50.22C253.47 51.26 255.01 52.69 256.13 54.51C257.25 56.33 257.81 58.4 257.81 60.72C257.81 63.08 257.24 65.17 256.1 66.99C254.96 68.81 253.41 70.24 251.45 71.28C249.49 72.32 247.25 72.84 244.73 72.84H244.85ZM244.85 67.67C246.41 67.67 247.81 67.32 249.05 66.62C250.29 65.92 251.27 64.93 251.99 63.65C252.71 62.37 253.07 60.87 253.07 59.15C253.07 57.39 252.72 55.87 252.02 54.59C251.32 53.31 250.36 52.32 249.14 51.62C247.92 50.92 246.53 50.57 244.97 50.57C243.41 50.57 242.01 50.92 240.77 51.62C239.53 52.32 238.55 53.31 237.83 54.59C237.11 55.87 236.75 57.37 236.75 59.09C236.75 60.85 237.1 62.37 237.8 63.65C238.5 64.93 239.46 65.92 240.68 66.62C241.9 67.32 243.29 67.67 244.85 67.67Z" fill="white"/>
<path d="M267.74 72.37V43.66H273.53V49.31H273.72C274.36 47.81 275.34 46.63 276.66 45.77C277.98 44.91 279.52 44.48 281.28 44.48C283.28 44.48 285 44.98 286.44 45.98C287.88 46.98 288.93 48.41 289.59 50.27H289.78C290.54 48.47 291.71 47.04 293.29 45.98C294.87 44.92 296.73 44.39 298.87 44.39C301.57 44.39 303.73 45.26 305.35 46.99C306.97 48.72 307.78 51.22 307.78 54.49V72.37H301.89V55.68C301.89 53.48 301.38 51.9 300.36 50.94C299.34 49.98 298.1 49.5 296.64 49.5C294.86 49.5 293.46 50.08 292.44 51.24C291.42 52.4 290.91 53.92 290.91 55.8V72.37H285.12V55.39C285.12 53.43 284.64 51.91 283.68 50.83C282.72 49.75 281.46 49.21 279.9 49.21C278.84 49.21 277.86 49.49 276.96 50.05C276.06 50.61 275.33 51.42 274.77 52.48C274.21 53.54 273.93 54.79 273.93 56.23V72.37H267.74Z" fill="white"/>
<path d="M31.09 10.86H10.33V38.46H32.13C35.17 38.46 36.77 36.06 37.49 33.25C38.41 29.68 37.95 20.13 37.66 17.37C37.26 13.55 35.09 11.4 31.1 10.87M3.81 0.609985H32.35C40.56 0.609985 46.89 5.76 48.21 11.75C49.33 16.84 50.14 30.35 48.21 39.42C47.35 43.49 41.65 49.03 32.35 49.03H5.03998C3.54998 48.89 2.33999 48.41 1.42999 47.51C0.569993 46.66 0.119995 45.47 0.119995 44.26L0 5.16998C0 4.74998 0.0499829 4.34 0.169983 3.94C0.689983 2.31 2.21998 1.19998 3.78998 0.599976" fill="url(#paint0_linear_555_322)"/>
<path d="M101.64 10.66H60.6599C59.1399 10.66 57.8999 9.42002 57.8999 7.90002V3.08002C57.8999 1.56002 59.1399 0.320007 60.6599 0.320007H101.64C103.16 0.320007 104.4 1.56002 104.4 3.08002V7.90002C104.4 9.42002 103.16 10.66 101.64 10.66Z" fill="url(#paint1_linear_555_322)"/>
<path d="M101.64 29.79H60.6599C59.1399 29.79 57.8999 28.55 57.8999 27.03V22.21C57.8999 20.69 59.1399 19.45 60.6599 19.45H101.64C103.16 19.45 104.4 20.69 104.4 22.21V27.03C104.4 28.55 103.16 29.79 101.64 29.79Z" fill="url(#paint2_linear_555_322)"/>
<path d="M101.64 48.92H60.6599C59.1399 48.92 57.8999 47.68 57.8999 46.16V41.34C57.8999 39.82 59.1399 38.58 60.6599 38.58H101.64C103.16 38.58 104.4 39.82 104.4 41.34V46.16C104.4 47.68 103.16 48.92 101.64 48.92Z" fill="url(#paint3_linear_555_322)"/>
<path d="M44.0701 68.05H3.09009C1.57009 68.05 0.330078 66.81 0.330078 65.29V60.47C0.330078 58.95 1.57009 57.71 3.09009 57.71H44.0701C45.5901 57.71 46.8301 58.95 46.8301 60.47V65.29C46.8301 66.81 45.5901 68.05 44.0701 68.05Z" fill="url(#paint4_linear_555_322)"/>
<path d="M44.0701 87.18H3.09009C1.57009 87.18 0.330078 85.94 0.330078 84.42V79.6C0.330078 78.08 1.57009 76.84 3.09009 76.84H44.0701C45.5901 76.84 46.8301 78.08 46.8301 79.6V84.42C46.8301 85.94 45.5901 87.18 44.0701 87.18Z" fill="url(#paint5_linear_555_322)"/>
<path d="M44.0701 106.31H3.09009C1.57009 106.31 0.330078 105.07 0.330078 103.55V98.73C0.330078 97.21 1.57009 95.97 3.09009 95.97H44.0701C45.5901 95.97 46.8301 97.21 46.8301 98.73V103.55C46.8301 105.07 45.5901 106.31 44.0701 106.31Z" fill="url(#paint6_linear_555_322)"/>
<path d="M105.15 67.32C104.28 63.25 98.59 57.71 89.29 57.71H61.98C61.98 57.71 61.93 57.71 61.91 57.71C59.16 57.98 57.07 60.32 57.06 63.09V63.58L57.05 65.47V87.39C57.03 87.52 57.02 87.64 57.02 87.77V103.46C57.02 104.98 58.26 106.22 59.78 106.22H64.6C66.12 106.22 67.36 104.98 67.36 103.46V95.27H89.29C97.5 95.27 103.83 90.12 105.15 84.12C106.27 79.03 107.08 76.37 105.15 67.3V67.32ZM94.59 78.53C94.1 82.3 92.02 84.49 88.03 85.03H72.42H67.36V68.24H72.42V68.27H89.0699C92.1099 68.27 93.98 70.65 94.6 73.48C94.94 75.05 94.76 77.28 94.6 78.51L94.59 78.53Z" fill="url(#paint7_linear_555_322)"/>
<path d="M57.0601 63.59L57.05 65.48V63.59H57.0601Z" fill="url(#paint8_linear_555_322)"/>
<defs>
<linearGradient id="paint0_linear_555_322" x1="7.12" y1="-1.43003" x2="36.67" y2="49.74" gradientUnits="userSpaceOnUse">
<stop stop-color="#F2A813"/>
<stop offset="1" stop-color="#CB4F9A"/>
</linearGradient>
<linearGradient id="paint1_linear_555_322" x1="73.6099" y1="-7.57997" x2="88.6898" y2="18.56" gradientUnits="userSpaceOnUse">
<stop stop-color="#CB4F9A"/>
<stop offset="1" stop-color="#AE2AE2"/>
</linearGradient>
<linearGradient id="paint2_linear_555_322" x1="73.6099" y1="11.55" x2="88.6898" y2="37.69" gradientUnits="userSpaceOnUse">
<stop stop-color="#CB4F9A"/>
<stop offset="1" stop-color="#AE2AE2"/>
</linearGradient>
<linearGradient id="paint3_linear_555_322" x1="73.6099" y1="30.68" x2="88.6898" y2="56.82" gradientUnits="userSpaceOnUse">
<stop stop-color="#CB4F9A"/>
<stop offset="1" stop-color="#AE2AE2"/>
</linearGradient>
<linearGradient id="paint4_linear_555_322" x1="16.0401" y1="49.81" x2="31.13" y2="75.95" gradientUnits="userSpaceOnUse">
<stop stop-color="#AE2AE2"/>
<stop offset="1" stop-color="#6F79F1"/>
</linearGradient>
<linearGradient id="paint5_linear_555_322" x1="16.0401" y1="68.9401" x2="31.13" y2="95.08" gradientUnits="userSpaceOnUse">
<stop stop-color="#AE2AE2"/>
<stop offset="1" stop-color="#6F79F1"/>
</linearGradient>
<linearGradient id="paint6_linear_555_322" x1="16.0401" y1="88.07" x2="31.1301" y2="114.21" gradientUnits="userSpaceOnUse">
<stop stop-color="#AE2AE2"/>
<stop offset="1" stop-color="#6F79F1"/>
</linearGradient>
<linearGradient id="paint7_linear_555_322" x1="64.06" y1="55.93" x2="88.64" y2="98.52" gradientUnits="userSpaceOnUse">
<stop stop-color="#6F79F1"/>
<stop offset="1" stop-color="#37BFFE"/>
</linearGradient>
<linearGradient id="paint8_linear_555_322" x1="56.6396" y1="63.82" x2="57.4592" y2="65.2407" gradientUnits="userSpaceOnUse">
<stop stop-color="#F2A813"/>
<stop offset="0.29" stop-color="#CB4F9A"/>
<stop offset="0.53" stop-color="#AE2AE2"/>
<stop offset="0.78" stop-color="#6F79F1"/>
<stop offset="1" stop-color="#37BFFE"/>
</linearGradient>
</defs>
</svg>


