<svg width="433" height="107" viewBox="0 0 433 107" fill="none" xmlns="http://www.w3.org/2000/svg">
<path d="M142.47 71.18C141.26 71.18 140.15 70.89 139.15 70.3C138.14 69.71 137.34 68.92 136.75 67.9C136.16 66.89 135.87 65.78 135.87 64.58V42.58C135.87 41.37 136.16 40.27 136.75 39.26C137.34 38.25 138.13 37.45 139.15 36.86C140.16 36.27 141.27 35.98 142.47 35.98H170.98V41.9H143.5C142.98 41.9 142.55 42.06 142.23 42.36C141.9 42.67 141.74 43.09 141.74 43.61V63.56C141.74 64.08 141.9 64.5 142.23 64.81C142.56 65.12 142.98 65.27 143.5 65.27H170.98V71.19H142.47V71.18Z" fill="white"/>
<path d="M179.12 70.27C178.13 69.67 177.33 68.87 176.72 67.87C176.12 66.88 175.82 65.79 175.82 64.62V49.37C175.82 48.2 176.12 47.11 176.72 46.12C177.32 45.13 178.12 44.33 179.12 43.72C180.11 43.12 181.2 42.82 182.37 42.82H198.06C199.27 42.82 200.37 43.11 201.36 43.7C202.35 44.29 203.14 45.08 203.73 46.07C204.32 47.06 204.61 48.16 204.61 49.37V64.62C204.61 65.79 204.32 66.88 203.73 67.87C203.14 68.86 202.35 69.66 201.36 70.27C200.37 70.87 199.27 71.17 198.06 71.17H182.37C181.2 71.17 180.11 70.87 179.12 70.27ZM182.57 65.36H197.87C198.13 65.36 198.35 65.27 198.53 65.09C198.71 64.91 198.8 64.69 198.8 64.43V49.57C198.8 49.31 198.71 49.09 198.53 48.91C198.35 48.73 198.13 48.64 197.87 48.64H182.57C182.31 48.64 182.09 48.73 181.91 48.91C181.73 49.09 181.64 49.31 181.64 49.57V64.43C181.64 64.69 181.73 64.91 181.91 65.09C182.09 65.27 182.31 65.36 182.57 65.36Z" fill="white"/>
<path d="M209.8 71.18V42.82H245.49C246.7 42.82 247.8 43.12 248.79 43.72C249.78 44.32 250.57 45.12 251.16 46.12C251.75 47.11 252.04 48.2 252.04 49.37V71.18H246.22V49.57C246.22 49.31 246.13 49.09 245.95 48.91C245.77 48.73 245.55 48.64 245.29 48.64H234.78C234.55 48.64 234.35 48.73 234.17 48.91C233.99 49.09 233.9 49.31 233.9 49.57V71.18H227.98V49.57C227.98 49.31 227.89 49.09 227.71 48.91C227.53 48.73 227.33 48.64 227.1 48.64H216.54C216.31 48.64 216.11 48.73 215.93 48.91C215.75 49.09 215.66 49.31 215.66 49.57V71.18H209.79H209.8Z" fill="white"/>
<path d="M255.86 71.18V42.82H291.55C292.76 42.82 293.86 43.12 294.85 43.72C295.84 44.32 296.63 45.12 297.22 46.12C297.81 47.11 298.1 48.2 298.1 49.37V71.18H292.28V49.57C292.28 49.31 292.19 49.09 292.01 48.91C291.83 48.73 291.61 48.64 291.35 48.64H280.84C280.61 48.64 280.41 48.73 280.23 48.91C280.05 49.09 279.96 49.31 279.96 49.57V71.18H274.04V49.57C274.04 49.31 273.95 49.09 273.77 48.91C273.59 48.73 273.39 48.64 273.16 48.64H262.6C262.37 48.64 262.17 48.73 261.99 48.91C261.81 49.09 261.72 49.31 261.72 49.57V71.18H255.85H255.86Z" fill="white"/>
<path d="M306.88 70.27C305.89 69.67 305.1 68.87 304.51 67.87C303.92 66.88 303.63 65.79 303.63 64.62V42.81H309.45V64.42C309.45 64.68 309.54 64.9 309.72 65.08C309.9 65.26 310.12 65.35 310.38 65.35H325.68C325.94 65.35 326.16 65.26 326.34 65.08C326.52 64.9 326.61 64.68 326.61 64.42V42.81H332.43V64.62C332.43 65.79 332.14 66.88 331.55 67.87C330.96 68.86 330.17 69.66 329.18 70.27C328.19 70.87 327.09 71.17 325.88 71.17H310.19C308.98 71.17 307.88 70.87 306.89 70.27H306.88Z" fill="white"/>
<path d="M337.76 71.18V42.82H360.06C361.23 42.82 362.32 43.12 363.31 43.72C364.3 44.32 365.09 45.12 365.68 46.12C366.27 47.11 366.56 48.2 366.56 49.37V71.18H360.74V49.57C360.74 49.31 360.65 49.09 360.47 48.91C360.29 48.73 360.09 48.64 359.86 48.64H344.51C344.25 48.64 344.03 48.73 343.85 48.91C343.67 49.09 343.58 49.31 343.58 49.57V71.18H337.76Z" fill="white"/>
<path d="M371.69 39.4V33.53H377.51V39.4H371.69ZM371.69 71.18V42.82H377.51V71.18H371.69Z" fill="white"/>
<path d="M386.23 70.27C385.24 69.67 384.45 68.87 383.86 67.87C383.27 66.88 382.98 65.79 382.98 64.62V33.96H388.8V42.81H400.14V48.63H388.8V64.42C388.8 64.68 388.89 64.9 389.07 65.08C389.25 65.26 389.47 65.35 389.73 65.35H400.14V71.17H389.53C388.32 71.17 387.22 70.87 386.23 70.27Z" fill="white"/>
<path d="M408.65 81.84V75.97H425.91C426.14 75.97 426.34 75.88 426.52 75.7C426.7 75.52 426.79 75.32 426.79 75.09V71.18H410.36C409.15 71.18 408.06 70.89 407.08 70.3C406.1 69.71 405.31 68.92 404.71 67.93C404.11 66.94 403.81 65.84 403.81 64.63V42.92H409.63V64.43C409.63 64.69 409.72 64.91 409.9 65.09C410.08 65.27 410.3 65.36 410.56 65.36H425.91C426.14 65.36 426.34 65.27 426.52 65.09C426.7 64.91 426.79 64.69 426.79 64.43V42.92H432.61V75.29C432.61 76.5 432.32 77.6 431.75 78.59C431.18 79.58 430.4 80.37 429.4 80.96C428.41 81.55 427.31 81.84 426.1 81.84H408.64H408.65Z" fill="white"/>
<path d="M31.09 10.83H10.33V38.43H32.13C35.17 38.43 36.77 36.03 37.49 33.22C38.41 29.65 37.95 20.1 37.66 17.34C37.26 13.52 35.09 11.37 31.1 10.84M3.81 0.579987H32.35C40.56 0.579987 46.89 5.73 48.21 11.72C49.33 16.81 50.14 30.32 48.21 39.39C47.35 43.46 41.65 49 32.35 49H5.03998C3.54998 48.86 2.33999 48.38 1.42999 47.48C0.569993 46.63 0.119995 45.44 0.119995 44.23L0 5.14001C0 4.72001 0.0499829 4.31 0.169983 3.91C0.689983 2.28 2.21998 1.17001 3.78998 0.570007" fill="url(#paint0_linear_555_301)"/>
<path d="M101.64 10.63H60.6599C59.1399 10.63 57.8999 9.39 57.8999 7.87V3.04999C57.8999 1.52999 59.1399 0.290009 60.6599 0.290009H101.64C103.16 0.290009 104.4 1.52999 104.4 3.04999V7.87C104.4 9.39 103.16 10.63 101.64 10.63Z" fill="url(#paint1_linear_555_301)"/>
<path d="M101.64 29.76H60.6599C59.1399 29.76 57.8999 28.52 57.8999 27V22.18C57.8999 20.66 59.1399 19.42 60.6599 19.42H101.64C103.16 19.42 104.4 20.66 104.4 22.18V27C104.4 28.52 103.16 29.76 101.64 29.76Z" fill="url(#paint2_linear_555_301)"/>
<path d="M101.64 48.89H60.6599C59.1399 48.89 57.8999 47.65 57.8999 46.13V41.31C57.8999 39.79 59.1399 38.55 60.6599 38.55H101.64C103.16 38.55 104.4 39.79 104.4 41.31V46.13C104.4 47.65 103.16 48.89 101.64 48.89Z" fill="url(#paint3_linear_555_301)"/>
<path d="M44.0701 68.02H3.09009C1.57009 68.02 0.330078 66.78 0.330078 65.26V60.44C0.330078 58.92 1.57009 57.68 3.09009 57.68H44.0701C45.5901 57.68 46.8301 58.92 46.8301 60.44V65.26C46.8301 66.78 45.5901 68.02 44.0701 68.02Z" fill="url(#paint4_linear_555_301)"/>
<path d="M44.0701 87.15H3.09009C1.57009 87.15 0.330078 85.91 0.330078 84.39V79.57C0.330078 78.05 1.57009 76.81 3.09009 76.81H44.0701C45.5901 76.81 46.8301 78.05 46.8301 79.57V84.39C46.8301 85.91 45.5901 87.15 44.0701 87.15Z" fill="url(#paint5_linear_555_301)"/>
<path d="M44.0701 106.28H3.09009C1.57009 106.28 0.330078 105.04 0.330078 103.52V98.7C0.330078 97.18 1.57009 95.94 3.09009 95.94H44.0701C45.5901 95.94 46.8301 97.18 46.8301 98.7V103.52C46.8301 105.04 45.5901 106.28 44.0701 106.28Z" fill="url(#paint6_linear_555_301)"/>
<path d="M105.15 67.29C104.28 63.22 98.59 57.68 89.29 57.68H61.98C61.98 57.68 61.93 57.68 61.91 57.68C59.16 57.95 57.07 60.29 57.06 63.06V63.55L57.05 65.44V87.36C57.03 87.49 57.02 87.61 57.02 87.74V103.43C57.02 104.95 58.26 106.19 59.78 106.19H64.6C66.12 106.19 67.36 104.95 67.36 103.43V95.24H89.29C97.5 95.24 103.83 90.09 105.15 84.09C106.27 79 107.08 76.34 105.15 67.27V67.29ZM94.59 78.5C94.1 82.27 92.02 84.46 88.03 85H72.42H67.36V68.21H72.42V68.24H89.0699C92.1099 68.24 93.98 70.62 94.6 73.45C94.94 75.02 94.76 77.25 94.6 78.48L94.59 78.5Z" fill="url(#paint7_linear_555_301)"/>
<path d="M57.0601 63.56L57.05 65.45V63.56H57.0601Z" fill="url(#paint8_linear_555_301)"/>
<defs>
<linearGradient id="paint0_linear_555_301" x1="7.12" y1="-1.45999" x2="36.67" y2="49.71" gradientUnits="userSpaceOnUse">
<stop stop-color="#F2A813"/>
<stop offset="1" stop-color="#CB4F9A"/>
</linearGradient>
<linearGradient id="paint1_linear_555_301" x1="73.6099" y1="-7.60999" x2="88.6899" y2="18.53" gradientUnits="userSpaceOnUse">
<stop stop-color="#CB4F9A"/>
<stop offset="1" stop-color="#AE2AE2"/>
</linearGradient>
<linearGradient id="paint2_linear_555_301" x1="73.6099" y1="11.52" x2="88.6899" y2="37.66" gradientUnits="userSpaceOnUse">
<stop stop-color="#CB4F9A"/>
<stop offset="1" stop-color="#AE2AE2"/>
</linearGradient>
<linearGradient id="paint3_linear_555_301" x1="73.6099" y1="30.65" x2="88.69" y2="56.79" gradientUnits="userSpaceOnUse">
<stop stop-color="#CB4F9A"/>
<stop offset="1" stop-color="#AE2AE2"/>
</linearGradient>
<linearGradient id="paint4_linear_555_301" x1="16.0401" y1="49.78" x2="31.1301" y2="75.92" gradientUnits="userSpaceOnUse">
<stop stop-color="#AE2AE2"/>
<stop offset="1" stop-color="#6F79F1"/>
</linearGradient>
<linearGradient id="paint5_linear_555_301" x1="16.0401" y1="68.91" x2="31.1301" y2="95.05" gradientUnits="userSpaceOnUse">
<stop stop-color="#AE2AE2"/>
<stop offset="1" stop-color="#6F79F1"/>
</linearGradient>
<linearGradient id="paint6_linear_555_301" x1="16.0401" y1="88.04" x2="31.1301" y2="114.18" gradientUnits="userSpaceOnUse">
<stop stop-color="#AE2AE2"/>
<stop offset="1" stop-color="#6F79F1"/>
</linearGradient>
<linearGradient id="paint7_linear_555_301" x1="64.06" y1="55.9" x2="88.64" y2="98.49" gradientUnits="userSpaceOnUse">
<stop stop-color="#6F79F1"/>
<stop offset="1" stop-color="#37BFFE"/>
</linearGradient>
<linearGradient id="paint8_linear_555_301" x1="56.6396" y1="63.79" x2="57.4593" y2="65.2107" gradientUnits="userSpaceOnUse">
<stop stop-color="#F2A813"/>
<stop offset="0.29" stop-color="#CB4F9A"/>
<stop offset="0.53" stop-color="#AE2AE2"/>
<stop offset="0.78" stop-color="#6F79F1"/>
<stop offset="1" stop-color="#37BFFE"/>
</linearGradient>
</defs>
</svg>
