<svg width="345" height="107" viewBox="0 0 345 107" fill="none" xmlns="http://www.w3.org/2000/svg">
<path d="M135.76 69.55V34.35H168.08V40.27H141.68V49.02H162.95V54.89H141.68V69.56H135.76V69.55Z" fill="black"/>
<path d="M174.12 68.64C173.13 68.04 172.34 67.24 171.75 66.24C171.16 65.25 170.87 64.16 170.87 62.99V41.18H176.69V62.79C176.69 63.05 176.78 63.27 176.96 63.45C177.14 63.63 177.36 63.72 177.62 63.72H192.92C193.18 63.72 193.4 63.63 193.58 63.45C193.76 63.27 193.85 63.05 193.85 62.79V41.18H199.67V62.99C199.67 64.16 199.38 65.25 198.79 66.24C198.2 67.23 197.41 68.03 196.42 68.64C195.43 69.24 194.33 69.54 193.12 69.54H177.43C176.22 69.54 175.12 69.24 174.13 68.64H174.12Z" fill="black"/>
<path d="M205 69.55V41.19H227.3C228.47 41.19 229.56 41.49 230.55 42.09C231.54 42.69 232.33 43.49 232.92 44.49C233.51 45.48 233.8 46.57 233.8 47.74V69.55H227.98V47.94C227.98 47.68 227.89 47.46 227.71 47.28C227.53 47.1 227.33 47.01 227.1 47.01H211.75C211.49 47.01 211.27 47.1 211.09 47.28C210.91 47.46 210.82 47.68 210.82 47.94V69.55H205Z" fill="black"/>
<path d="M240.76 68.66C239.77 68.07 238.98 67.28 238.39 66.29C237.8 65.3 237.51 64.2 237.51 62.99V47.74C237.51 46.57 237.8 45.48 238.39 44.49C238.98 43.5 239.77 42.7 240.76 42.09C241.75 41.49 242.85 41.19 244.06 41.19H260.54V31.9H266.36V69.55H244.06C242.85 69.55 241.75 69.26 240.76 68.67V68.66ZM244.31 63.73H259.61C259.87 63.73 260.09 63.64 260.27 63.46C260.45 63.28 260.54 63.06 260.54 62.8V47.94C260.54 47.68 260.45 47.46 260.27 47.28C260.09 47.1 259.87 47.01 259.61 47.01H244.31C244.05 47.01 243.83 47.1 243.65 47.28C243.47 47.46 243.38 47.68 243.38 47.94V62.8C243.38 63.06 243.47 63.28 243.65 63.46C243.83 63.64 244.05 63.73 244.31 63.73Z" fill="black"/>
<path d="M271.54 37.76V31.89H277.36V37.76H271.54ZM271.54 69.55V41.19H277.36V69.55H271.54Z" fill="black"/>
<path d="M283.03 69.55V41.19H305.33C306.5 41.19 307.59 41.49 308.58 42.09C309.57 42.69 310.36 43.49 310.95 44.49C311.54 45.48 311.83 46.57 311.83 47.74V69.55H306.01V47.94C306.01 47.68 305.92 47.46 305.74 47.28C305.56 47.1 305.36 47.01 305.13 47.01H289.78C289.52 47.01 289.3 47.1 289.12 47.28C288.94 47.46 288.85 47.68 288.85 47.94V69.55H283.03Z" fill="black"/>
<path d="M321.02 80.74V74.87H338.28C338.51 74.87 338.71 74.78 338.89 74.6C339.07 74.42 339.16 74.2 339.16 73.94V69.54H322.73C321.52 69.54 320.43 69.25 319.45 68.66C318.47 68.07 317.68 67.28 317.08 66.29C316.48 65.3 316.18 64.2 316.18 62.99V47.74C316.18 46.57 316.48 45.48 317.08 44.49C317.68 43.5 318.48 42.7 319.48 42.09C320.47 41.49 321.56 41.19 322.73 41.19H338.47C339.68 41.19 340.78 41.49 341.77 42.09C342.76 42.69 343.55 43.49 344.12 44.49C344.69 45.48 344.98 46.57 344.98 47.74V74.19C344.98 75.4 344.69 76.5 344.12 77.49C343.55 78.48 342.77 79.27 341.77 79.86C340.78 80.45 339.68 80.74 338.47 80.74H321.01H321.02ZM322.93 63.73H338.28C338.51 63.73 338.71 63.64 338.89 63.46C339.07 63.28 339.16 63.06 339.16 62.8V47.94C339.16 47.68 339.07 47.46 338.89 47.28C338.71 47.1 338.51 47.01 338.28 47.01H322.93C322.67 47.01 322.45 47.1 322.27 47.28C322.09 47.46 322 47.68 322 47.94V62.8C322 63.06 322.09 63.28 322.27 63.46C322.45 63.64 322.67 63.73 322.93 63.73Z" fill="black"/>
<path d="M31.09 10.74H10.33V38.34H32.13C35.17 38.34 36.77 35.94 37.49 33.13C38.41 29.56 37.95 20.01 37.66 17.25C37.26 13.43 35.09 11.28 31.1 10.75M3.81 0.480011H32.35C40.56 0.480011 46.89 5.63 48.21 11.62C49.33 16.71 50.14 30.22 48.21 39.29C47.35 43.36 41.65 48.9 32.35 48.9H5.03998C3.54998 48.76 2.33999 48.28 1.42999 47.38C0.569993 46.53 0.119995 45.34 0.119995 44.13L0 5.04001C0 4.62001 0.0499829 4.21 0.169983 3.81C0.689983 2.18 2.21998 1.07 3.78998 0.470001" fill="url(#paint0_linear_555_282)"/>
<path d="M101.64 10.53H60.6599C59.1399 10.53 57.8999 9.28999 57.8999 7.76999V2.95001C57.8999 1.43001 59.1399 0.190002 60.6599 0.190002H101.64C103.16 0.190002 104.4 1.43001 104.4 2.95001V7.76999C104.4 9.28999 103.16 10.53 101.64 10.53Z" fill="url(#paint1_linear_555_282)"/>
<path d="M101.64 29.66H60.6599C59.1399 29.66 57.8999 28.42 57.8999 26.9V22.08C57.8999 20.56 59.1399 19.32 60.6599 19.32H101.64C103.16 19.32 104.4 20.56 104.4 22.08V26.9C104.4 28.42 103.16 29.66 101.64 29.66Z" fill="url(#paint2_linear_555_282)"/>
<path d="M101.64 48.79H60.6599C59.1399 48.79 57.8999 47.55 57.8999 46.03V41.21C57.8999 39.69 59.1399 38.45 60.6599 38.45H101.64C103.16 38.45 104.4 39.69 104.4 41.21V46.03C104.4 47.55 103.16 48.79 101.64 48.79Z" fill="url(#paint3_linear_555_282)"/>
<path d="M44.0701 67.92H3.09009C1.57009 67.92 0.330078 66.68 0.330078 65.16V60.34C0.330078 58.82 1.57009 57.58 3.09009 57.58H44.0701C45.5901 57.58 46.8301 58.82 46.8301 60.34V65.16C46.8301 66.68 45.5901 67.92 44.0701 67.92Z" fill="url(#paint4_linear_555_282)"/>
<path d="M44.0701 87.05H3.09009C1.57009 87.05 0.330078 85.81 0.330078 84.29V79.47C0.330078 77.95 1.57009 76.71 3.09009 76.71H44.0701C45.5901 76.71 46.8301 77.95 46.8301 79.47V84.29C46.8301 85.81 45.5901 87.05 44.0701 87.05Z" fill="url(#paint5_linear_555_282)"/>
<path d="M44.0701 106.18H3.09009C1.57009 106.18 0.330078 104.94 0.330078 103.42V98.6C0.330078 97.08 1.57009 95.84 3.09009 95.84H44.0701C45.5901 95.84 46.8301 97.08 46.8301 98.6V103.42C46.8301 104.94 45.5901 106.18 44.0701 106.18Z" fill="url(#paint6_linear_555_282)"/>
<path d="M105.15 67.2C104.28 63.13 98.59 57.59 89.29 57.59H61.98C61.98 57.59 61.93 57.59 61.91 57.59C59.16 57.86 57.07 60.2 57.06 62.97V63.46L57.05 65.35V87.27C57.03 87.4 57.02 87.52 57.02 87.65V103.34C57.02 104.86 58.26 106.1 59.78 106.1H64.6C66.12 106.1 67.36 104.86 67.36 103.34V95.15H89.29C97.5 95.15 103.83 90 105.15 84C106.27 78.91 107.08 76.25 105.15 67.18V67.2ZM94.59 78.4C94.1 82.17 92.02 84.36 88.03 84.9H72.42H67.36V68.11H72.42V68.14H89.0699C92.1099 68.14 93.98 70.52 94.6 73.35C94.94 74.92 94.76 77.15 94.6 78.38L94.59 78.4Z" fill="url(#paint7_linear_555_282)"/>
<path d="M57.0601 63.46L57.05 65.35V63.46H57.0601Z" fill="url(#paint8_linear_555_282)"/>
<defs>
<linearGradient id="paint0_linear_555_282" x1="7.12" y1="-1.56" x2="36.67" y2="49.61" gradientUnits="userSpaceOnUse">
<stop stop-color="#F2A813"/>
<stop offset="1" stop-color="#CB4F9A"/>
</linearGradient>
<linearGradient id="paint1_linear_555_282" x1="73.6099" y1="-7.7" x2="88.6899" y2="18.43" gradientUnits="userSpaceOnUse">
<stop stop-color="#CB4F9A"/>
<stop offset="1" stop-color="#AE2AE2"/>
</linearGradient>
<linearGradient id="paint2_linear_555_282" x1="73.6099" y1="11.43" x2="88.6899" y2="37.56" gradientUnits="userSpaceOnUse">
<stop stop-color="#CB4F9A"/>
<stop offset="1" stop-color="#AE2AE2"/>
</linearGradient>
<linearGradient id="paint3_linear_555_282" x1="73.6099" y1="30.56" x2="88.6899" y2="56.69" gradientUnits="userSpaceOnUse">
<stop stop-color="#CB4F9A"/>
<stop offset="1" stop-color="#AE2AE2"/>
</linearGradient>
<linearGradient id="paint4_linear_555_282" x1="16.0401" y1="49.69" x2="31.1301" y2="75.82" gradientUnits="userSpaceOnUse">
<stop stop-color="#AE2AE2"/>
<stop offset="1" stop-color="#6F79F1"/>
</linearGradient>
<linearGradient id="paint5_linear_555_282" x1="16.0401" y1="68.82" x2="31.1301" y2="94.95" gradientUnits="userSpaceOnUse">
<stop stop-color="#AE2AE2"/>
<stop offset="1" stop-color="#6F79F1"/>
</linearGradient>
<linearGradient id="paint6_linear_555_282" x1="16.0401" y1="87.95" x2="31.1301" y2="114.08" gradientUnits="userSpaceOnUse">
<stop stop-color="#AE2AE2"/>
<stop offset="1" stop-color="#6F79F1"/>
</linearGradient>
<linearGradient id="paint7_linear_555_282" x1="64.06" y1="55.81" x2="88.64" y2="98.39" gradientUnits="userSpaceOnUse">
<stop stop-color="#6F79F1"/>
<stop offset="1" stop-color="#37BFFE"/>
</linearGradient>
<linearGradient id="paint8_linear_555_282" x1="56.6396" y1="63.7" x2="57.4593" y2="65.1207" gradientUnits="userSpaceOnUse">
<stop stop-color="#F2A813"/>
<stop offset="0.29" stop-color="#CB4F9A"/>
<stop offset="0.53" stop-color="#AE2AE2"/>
<stop offset="0.78" stop-color="#6F79F1"/>
<stop offset="1" stop-color="#37BFFE"/>
</linearGradient>
</defs>
</svg>
